PathFileType	3	(X/Y/Z)	RCH0000002 BBF 14.c3d
DataRate	CameraRate	NumFrames	NumMarkers	Units	OrigDataRate	OrigDataStartFrame	OrigNumFrames
100.0	100.0	9	23	mm	100.0	523	502
Frame#	Time	RASI			LPAT			LKNE			LANK			LMED			LHEE			RPAT			RKNE			RANK			RMED			RHEE			RTOE			LTOE			MAN			LASI			T2			T10			LPSI			RPSI			RTHI			LTHI			RTIB			LTIB			
		X1	Y1	Z1	X2	Y2	Z2	X3	Y3	Z3	X4	Y4	Z4	X5	Y5	Z5	X6	Y6	Z6	X7	Y7	Z7	X8	Y8	Z8	X9	Y9	Z9	X10	Y10	Z10	X11	Y11	Z11	X12	Y12	Z12	X13	Y13	Z13	X14	Y14	Z14	X15	Y15	Z15	X16	Y16	Z16	X17	Y17	Z17	X18	Y18	Z18	X19	Y19	Z19	X20	Y20	Z20	X21	Y21	Z21	X22	Y22	Z22	X23	Y23	Z23	

523	5.220	2033.01937	-116.83946	652.70978	2126.63643	-8.36952	391.53173	2098.95430	52.09534	340.02396	2063.93228	65.59206	71.06325	2068.86750	-4.43817	83.57242	2023.81251	23.14009	95.40931	1948.79397	-64.68562	355.35077	1900.35837	-122.37418	340.56236	1757.18247	-123.60772	98.10123	1739.14079	-62.60414	125.92867	1726.26204	-109.69503	152.56622	1776.19701	-72.95322	72.35265	2115.38773	33.64350	71.94967	2019.32573	44.00597	937.64041	2035.81101	58.27684	625.07145	1888.35234	15.01368	957.55473	1923.65482	-3.19854	770.70535	1921.56858	17.23239	677.58792	1923.14165	-52.90683	692.64818	1960.76840	-189.20283	436.68173	2055.72102	128.13629	453.42535	1846.59998	-190.06103	229.99339	2083.08742	120.63811	230.49437	
524	5.230	2045.32017	-116.17962	650.74375	2133.42219	-5.61047	389.74848	2104.42545	54.34634	338.83862	2065.31785	67.12761	70.20070	2069.87450	-2.85511	83.26947	2025.31681	25.10333	95.40973	1965.14590	-63.96946	352.10155	1915.64272	-120.86192	337.81107	1766.20081	-123.93207	99.78639	1749.40694	-62.50040	127.56087	1737.80832	-109.18816	155.33976	1783.45292	-73.60097	72.17439	2116.61076	34.73989	70.93445	2029.10362	45.16117	937.70532	2046.14440	59.11141	626.04089	1897.90100	16.30662	956.64463	1935.46345	-4.45076	770.39788	1932.64938	15.98764	678.25671	1934.91863	-54.36024	691.90346	1974.60236	-188.13185	434.50192	2062.76311	129.96537	453.15232	1859.23436	-189.29735	229.65974	2087.25099	122.58373	229.27261	
525	5.240	2057.39623	-115.27656	649.01542	2139.51337	-1.84098	388.43985	2108.95279	57.38646	338.15140	2065.97776	69.32239	69.74965	2070.13519	-0.62176	83.46669	2026.11959	27.76838	95.91331	1982.21224	-63.02548	349.09492	1931.63790	-119.10424	335.16182	1776.09951	-124.02900	101.89960	1760.68813	-62.03301	129.34466	1750.28737	-108.17444	158.35129	1791.72352	-74.23164	72.36006	2117.03671	36.43546	70.24814	2038.83305	46.07566	938.19110	2055.99138	60.17772	627.49438	1907.43163	17.30636	956.25924	1947.05492	-5.82341	770.59606	1943.35712	14.70485	679.39578	1946.41468	-55.84097	691.51682	1988.85699	-186.82337	432.55437	2068.72436	132.41875	453.38140	1872.55210	-188.28771	229.71205	2090.59526	125.31659	228.43396	
526	5.250	2069.17326	-114.13060	647.58988	2144.83581	2.60955	387.55731	2112.58119	61.00024	337.92107	2066.20916	72.00351	69.63117	2069.92354	2.09077	84.06143	2026.46550	30.96326	96.77984	1999.88137	-61.84420	346.47566	1948.27002	-117.12122	332.72912	1786.89354	-123.91551	104.47247	1772.95876	-61.23756	131.30753	1763.62806	-106.69882	161.60335	1801.10287	-74.85560	72.98620	2116.96412	38.56644	69.85162	2048.49906	46.73118	939.08744	2065.34878	61.46688	629.37358	1916.93956	17.97206	956.41719	1958.35839	-7.25414	771.29166	1953.66373	13.46236	680.96761	1957.57647	-57.26362	691.49991	2003.46538	-185.29010	430.93737	2073.76713	135.33936	454.07364	1886.53134	-187.04842	230.23331	2093.26542	128.63949	227.92246	
527	5.260	2080.59526	-112.75188	646.52396	2149.34210	7.38981	387.02985	2115.37058	64.94633	338.08159	2066.22094	74.94490	69.76375	2069.46363	5.06332	84.94133	2026.53863	34.44395	97.87063	2018.03330	-60.42224	344.38526	1965.45901	-114.94186	330.62579	1798.60403	-123.62677	107.50399	1786.18668	-60.17905	133.46455	1777.75666	-104.84657	165.07793	1811.68302	-75.48657	74.10522	2116.62602	40.93957	69.69774	2058.08777	47.12049	940.37237	2074.23254	62.96065	631.60309	1926.41951	18.27779	957.11594	1969.31841	-8.67751	772.45675	1963.56025	12.33606	682.92237	1968.36869	-58.54632	691.85389	2018.35713	-183.55564	429.74341	2078.07458	138.55032	455.16170	1901.16201	-185.60870	231.28294	2095.34238	132.30899	227.67400	
528	5.270	2091.62664	-111.15889	645.86069	2153.02081	12.16387	386.77670	2117.39562	68.98082	338.55212	2066.13748	77.89545	70.07303	2068.92723	8.05427	85.99699	2026.46541	37.92475	99.06312	2036.54576	-58.76161	342.95078	1983.12185	-112.60108	328.95463	1811.25683	-123.20964	110.95629	1800.33657	-58.94206	135.81269	1792.60362	-102.73112	168.73365	1823.54672	-76.13719	75.73783	2116.18801	43.35373	69.73718	2067.58757	47.24798	942.01181	2082.67266	64.63290	634.09558	1935.86603	18.21510	958.33135	1979.89670	-10.02972	774.04516	1973.05400	11.39179	685.19978	1978.77394	-59.61831	692.56797	2033.46112	-181.65202	429.05142	2081.82834	141.87263	456.55622	1916.44332	-184.00656	232.88870	2096.85289	136.06287	227.62556	
529	5.280	2102.25283	-109.37610	645.62470	2155.90131	16.64459	386.71842	2118.74464	72.88003	339.24714	2066.01357	80.61001	70.49835	2068.43703	10.82801	87.13241	2026.32441	41.11525	100.26104	2055.29999	-56.86940	342.27449	2001.17575	-110.13633	327.80081	1824.87939	-122.71520	114.75474	1815.37235	-57.61919	138.32747	1808.10879	-100.47923	172.50573	1836.75942	-76.81468	77.86890	2115.75473	45.62181	69.92316	2076.98999	47.12953	943.95979	2090.70708	66.45185	636.75765	1945.27395	17.79430	960.01869	1990.07234	-11.25319	775.99506	1982.16457	10.67851	687.73127	1988.79145	-60.42656	693.61849	2048.70870	-179.61640	428.92015	2085.18893	145.14125	458.15492	1932.37922	-182.28401	235.04228	2097.78972	139.64923	227.72180	
530	5.290	2112.47931	-107.43102	645.81894	2158.05385	20.61889	386.78477	2119.51780	76.45995	340.08505	2065.85571	82.87870	70.99542	2068.07334	13.18205	88.27207	2026.15962	43.75784	101.39938	2074.18592	-54.75762	342.42589	2019.54103	-107.58442	327.22623	1839.49659	-122.19165	118.79257	1831.25812	-56.29940	140.96247	1824.22476	-98.21610	176.30901	1851.36177	-77.51749	80.44752	2115.38158	47.58969	70.21433	2086.29036	46.79155	946.15924	2098.37572	68.38270	639.49576	1954.63872	17.04433	962.11498	1999.84071	-12.30065	778.23257	1990.91946	10.22310	690.44218	1998.43475	-60.94064	694.96871	2064.03711	-177.48745	429.38349	2088.28198	148.21824	459.85290	1948.97290	-180.48250	237.69938	2098.13605	142.85309	227.91832	
531	5.300	2122.32920	-105.35132	646.42340	2159.58511	23.96187	386.91866	2119.82418	79.58998	340.99430	2065.64477	84.55058	71.53533	2067.88208	14.96915	89.36393	2025.99403	45.66010	102.44390	2093.10597	-52.44317	343.43691	2038.14342	-104.97872	327.26615	1855.12638	-121.67866	122.93940	1847.95805	-55.05834	143.65201	1840.91784	-96.05274	180.04364	1867.36391	-78.23349	83.39125	2115.08869	49.15043	70.57610	2095.48803	46.26922	948.54357	2105.71541	70.39011	642.22169	1963.95665	16.01115	964.54254	2009.21142	-13.13811	780.67585	1999.34988	10.02758	693.25415	2007.72877	-61.15512	696.56943	2079.39282	-175.30168	430.44830	2091.19145	151.00151	461.55265	1966.22146	-178.63894	240.78426	2097.88854	145.51684	228.18207	
